<?xml version="1.0" standalone="no"?>
<!DOCTYPE svg PUBLIC "-//W3C//DTD SVG 20010904//EN"
 "http://www.w3.org/TR/2001/REC-SVG-20010904/DTD/svg10.dtd">
<svg version="1.0" xmlns="http://www.w3.org/2000/svg"
 width="481.000000pt" height="380.000000pt" viewBox="0 0 481.000000 380.000000"
 preserveAspectRatio="xMidYMid meet">
<metadata>
Created by potrace 1.16, written by Peter Selinger 2001-2019
</metadata>
<g transform="translate(0.000000,380.000000) scale(0.100000,-0.100000)"
fill="#000000" stroke="none">
<path d="M2390 3730 c-330 -28 -661 -162 -918 -372 -56 -46 -192 -188 -192
-201 0 -1 42 -2 93 -2 87 0 97 -2 144 -31 l49 -31 70 59 c281 240 658 360
1033 328 69 -6 155 -18 190 -26 68 -15 80 -11 81 28 0 29 56 83 120 117 33 18
60 34 60 35 0 2 -37 15 -82 29 -184 58 -446 85 -648 67z"/>
<path d="M3305 3507 c-114 -18 -145 -40 -145 -103 0 -61 59 -120 243 -243
l107 -71 0 -80 c0 -44 -4 -80 -9 -80 -5 0 -54 21 -108 46 -363 168 -625 186
-888 59 -103 -50 -182 -112 -274 -216 -86 -95 -161 -133 -265 -132 -72 1 -301
45 -340 65 -29 15 -151 112 -212 170 -88 83 -43 78 -764 78 -625 0 -640 0
-640 -19 0 -11 8 -27 17 -37 34 -33 46 -36 418 -109 72 -13 182 -38 245 -53
l115 -29 -55 -6 c-30 -4 -106 -11 -168 -17 -109 -10 -192 -32 -192 -51 0 -5 2
-9 3 -9 27 0 632 -138 797 -181 191 -51 674 -200 705 -217 23 -14 -73 -23
-280 -28 -216 -6 -221 -6 -297 19 -285 95 -553 25 -751 -193 -193 -213 -235
-554 -100 -813 43 -83 178 -227 257 -272 73 -43 165 -73 256 -84 206 -26 405
51 567 218 l68 71 250 10 c485 19 941 -29 1294 -137 64 -19 124 -38 134 -40
20 -6 57 23 57 45 0 8 -16 63 -35 123 -46 144 -59 230 -52 369 10 236 110 438
306 622 43 41 106 91 139 113 34 21 60 40 59 42 -2 1 -32 -5 -66 -13 -46 -12
-66 -13 -74 -5 -8 8 -8 11 1 11 7 0 12 5 12 10 0 13 -65 12 -234 -4 -132 -13
-139 -13 -157 5 -20 20 -33 19 -144 -6 -212 -49 -413 -113 -516 -166 -33 -16
-59 -27 -59 -25 0 3 38 30 84 60 197 132 570 278 816 320 304 53 639 17 815
-86 49 -29 85 -42 121 -46 48 -4 55 -2 88 29 78 72 67 200 -36 402 -151 295
-451 567 -738 669 -69 25 -260 32 -375 15z m388 -162 c115 -46 300 -178 403
-287 114 -119 226 -296 248 -388 3 -14 3 -19 0 -12 -3 6 -10 9 -15 6 -6 -3
-20 5 -32 18 -27 27 -263 247 -327 304 -25 22 -103 85 -175 139 -71 55 -146
114 -165 131 -52 48 -127 104 -139 104 -6 0 -11 5 -11 11 0 21 138 4 213 -26z
m-618 -410 c108 -28 229 -76 218 -85 -13 -11 -185 -29 -238 -25 -98 8 -165 26
-165 45 0 25 -89 60 -156 60 -25 1 -27 2 -11 11 59 34 207 32 352 -6z m-1405
-1011 c70 -21 112 -62 108 -106 l-3 -33 -345 -5 c-312 -5 -349 -7 -373 -23
-16 -10 -32 -28 -36 -40 -10 -28 5 -74 29 -87 11 -6 141 -10 315 -10 l297 0
29 -30 c26 -25 30 -36 27 -72 l-3 -43 -202 -3 -203 -2 -14 -28 c-36 -69 -144
-132 -227 -132 -86 0 -206 78 -252 164 -32 61 -32 202 1 266 49 93 149 170
246 190 22 4 156 8 297 9 207 1 266 -2 309 -15z"/>
<path d="M4035 2236 c-179 -41 -287 -135 -394 -342 -51 -100 -96 -153 -161
-193 l-50 -31 -2 -57 c-6 -165 8 -244 62 -358 87 -180 254 -316 445 -361 105
-24 276 -16 375 19 198 70 373 261 430 469 30 108 32 272 5 368 -30 106 -105
240 -134 240 -6 0 -11 5 -11 10 0 6 -7 10 -15 10 -8 0 -14 5 -13 11 2 6 -10
17 -27 23 -65 25 -136 79 -142 108 -7 33 -19 41 -105 68 -85 26 -189 33 -263
16z m217 -418 c46 -32 104 -105 116 -146 7 -22 12 -68 12 -104 0 -108 -56
-194 -163 -250 -60 -32 -172 -31 -245 1 -97 43 -162 146 -162 256 0 58 26 140
55 172 l25 28 23 -26 c12 -14 52 -64 90 -112 74 -95 100 -107 148 -68 23 18
24 27 27 151 4 129 4 131 25 124 12 -4 34 -15 49 -26z"/>
<path d="M1415 775 c-27 -13 -83 -31 -122 -41 -40 -10 -73 -21 -73 -25 0 -16
87 -118 165 -194 189 -185 438 -321 717 -394 185 -48 248 -56 463 -56 208 0
271 7 446 51 349 86 688 297 892 555 21 25 37 48 37 51 0 3 -24 9 -53 12 -29
4 -91 20 -137 36 l-83 29 -72 -67 c-202 -188 -439 -309 -732 -374 -134 -30
-454 -32 -583 -5 -102 22 -247 68 -327 103 -143 64 -347 206 -447 313 -17 17
-32 31 -35 30 -3 0 -28 -11 -56 -24z"/>
</g>
</svg>
